<?xml version="1.0" encoding="iso-8859-1"?>
<!-- Generator: Adobe Illustrator 16.0.0, SVG Export Plug-In . SVG Version: 6.00 Build 0)  -->
<!DOCTYPE svg PUBLIC "-//W3C//DTD SVG 1.1//EN" "http://www.w3.org/Graphics/SVG/1.1/DTD/svg11.dtd">
<svg version="1.1" id="Capa_1" xmlns="http://www.w3.org/2000/svg" xmlns:xlink="http://www.w3.org/1999/xlink" x="0px" y="0px"
	 width="400px" height="792px" viewBox="192 0 400 792" style="enable-background:new 0 0 600 792;" xml:space="preserve">
<g>
	<g>
		<path d="M395.998,177.596c48.967,0,88.801-39.833,88.801-88.8C484.798,39.833,444.964,0,395.998,0
			c-48.962,0-88.795,39.833-88.795,88.795C307.202,137.763,347.035,177.596,395.998,177.596z M395.998,19.56
			c38.181,0,69.241,31.061,69.241,69.236s-31.061,69.241-69.241,69.241c-38.18,0-69.236-31.065-69.236-69.241
			S357.817,19.56,395.998,19.56z"/>
		<path d="M483.932,185.654h-10.699c-3.521,0-6.768,2.709-8.508,5.775L395.89,313.197l-68.845-121.974
			c-1.736-3.066-4.988-5.569-8.508-5.569h-10.455c-39.403,0-68.562,37.114-68.562,67.637v242.812c0,5.398,2.968,7.394,8.372,7.394
			h42.782l29.848,278.493c0.533,4.969,4.729,10.01,9.721,10.01h131.513c4.993,0,9.188-5.041,9.722-10.01l29.848-278.493h42.781
			c5.398,0,8.372-1.99,8.372-7.394V253.291C552.474,222.069,525.159,185.654,483.932,185.654z M532.915,483.938h-40.376
			c-4.992,0-9.188,5.041-9.721,10.01L452.969,772.44H339.025l-29.848-278.493c-0.533-4.969-4.729-10.01-9.721-10.01h-40.376V253.291
			c0-18.699,19.76-48.077,49.002-48.077h4.758l74.541,132.223c1.736,3.066,4.988,5.364,8.509,5.364c3.521,0,6.768-2.503,8.508-5.569
			l74.532-132.017h5.002c31.217,0,48.982,28.684,48.982,48.077V483.938z"/>
	</g>
</g>
<g>
</g>
<g>
</g>
<g>
</g>
<g>
</g>
<g>
</g>
<g>
</g>
<g>
</g>
<g>
</g>
<g>
</g>
<g>
</g>
<g>
</g>
<g>
</g>
<g>
</g>
<g>
</g>
<g>
</g>
</svg>
